Coordinates
version=1
nRows=15
nColumns=42
inDegrees=yes

Units are S.I. units (second, meters, Newtons, ...)
If the header above contains a line with 'inDegrees', this indicates whether rotational values are in degrees (yes) or radians (no).

endheader
time	pelvis_tilt	pelvis_list	pelvis_rotation	pelvis_tx	pelvis_ty	pelvis_tz	hip_flexion_r	hip_adduction_r	hip_rotation_r	knee_angle_r	knee_adduction_r	knee_angle_r_beta	ankle_angle_r	subtalar_angle_r	mtp_angle_r	hip_flexion_l	hip_adduction_l	hip_rotation_l	knee_angle_l	knee_adduction_l	knee_angle_l_beta	ankle_angle_l	subtalar_angle_l	mtp_angle_l	lumbar_extension	lumbar_bending	lumbar_rotation	arm_flex_r	arm_add_r	arm_rot_r	elbow_flex_r	pro_sup_r	wrist_flex_r	wrist_dev_r	arm_flex_l	arm_add_l	arm_rot_l	elbow_flex_l	pro_sup_l	wrist_flex_l	wrist_dev_l
      2.32000000	     13.25891163	      1.72347282	      2.69521396	     -0.50936514	      0.91309090	     -0.00532613	      6.61258818	    -11.88216796	    -21.62375721	     20.85835353	      9.47215227	      0.36404695	      6.67582382	     29.73960494	     -7.51037371	    -25.06967517	      3.04366968	      6.00962536	     19.83040412	     -3.16481237	      0.34610584	     16.79347933	      3.83331391	     -7.51037371	    -30.43641802	      0.30206044	     -5.57866996	    -19.39320309	    -15.54837073	      5.04953066	     45.63218916	     90.00000001	      0.00000000	      0.00000000	     28.47236472	    -15.54041241	    -18.24422288	     48.46502842	     90.00000001	      0.00000000	      0.00000000
      2.33000000	     13.60021166	      1.51884564	      2.61909462	     -0.49947438	      0.91324955	     -0.00361698	      6.00658258	    -11.51743503	    -20.87616242	     21.70356535	      9.42219106	      0.37879867	      6.78675682	     29.15618884	     -7.51023180	    -25.62750614	      2.60255418	      5.88549164	     20.73782210	     -2.91047946	      0.36194328	     16.15800813	      3.61714689	     -7.51023180	    -30.52384374	      0.59174090	     -5.39698386	    -18.62864677	    -15.51800876	      4.98692915	     44.93841286	     90.00000001	      0.00000000	      0.00000000	     27.65107376	    -15.71891842	    -18.47351675	     49.60364705	     90.00000001	      0.00000000	      0.00000000
      2.34000000	     13.95854730	      1.31567032	      2.44913330	     -0.48962202	      0.91360379	     -0.00181678	      5.38102961	    -11.11236857	    -20.04958194	     22.46116572	      9.39456912	      0.39202130	      6.86767756	     28.67525565	     -7.51007672	    -26.01604828	      2.22427916	      5.60147694	     21.99217803	     -2.66998588	      0.38383592	     15.29545181	      3.37523641	     -7.51007672	    -30.65200948	      0.86286345	     -5.20060881	    -17.74746114	    -15.53080844	      4.92660922	     44.19560692	     90.00000001	      0.00000000	      0.00000000	     26.70707758	    -15.91351346	    -18.68093428	     50.76520880	     90.00000001	      0.00000000	      0.00000000
      2.35000000	     14.34748766	      1.12985064	      2.21025095	     -0.47982201	      0.91416905	      0.00024614	      4.71099770	    -10.69085692	    -19.17116520	     23.14223157	      9.38780336	      0.40390814	      6.93555741	     28.33342025	     -7.50985859	    -26.20816872	      1.84293332	      5.13201550	     23.65738355	     -2.35114205	      0.41289924	     14.27658633	      3.19548548	     -7.50985859	    -30.83094282	      1.05494297	     -4.94875669	    -16.78659149	    -15.51336018	      4.91611345	     43.44122556	     90.00000001	      0.00000000	      0.00000000	     25.73286428	    -16.09584640	    -18.88900046	     51.90709650	     90.00000001	      0.00000000	      0.00000000
      2.36000000	     14.82488336	      0.94509950	      1.95737884	     -0.46989619	      0.91502137	      0.00243272	      3.87654997	    -10.24796410	    -18.50200939	     23.73132738	      9.33673447	      0.41418980	      7.09154447	     28.38127432	     -7.50970557	    -26.29581846	      1.46865133	      4.51737873	     25.67669598	     -2.09461498	      0.44814289	     12.78719239	      3.00044533	     -7.50970557	    -31.09611297	      1.22224597	     -4.71613607	    -15.79458110	    -15.49216497	      4.91850862	     42.75831301	     90.00000001	      0.00000000	      0.00000000	     24.67677230	    -16.28707973	    -19.15644121	     53.07218925	     90.00000001	      0.00000000	      0.00000000
      2.37000000	     15.31711856	      0.74722045	      1.67650877	     -0.46007805	      0.91603871	      0.00467894	      3.00232831	     -9.76206572	    -17.87671139	     24.22734187	      9.21157850	      0.42284688	      7.30565082	     28.63094254	     -7.50955653	    -26.13601427	      1.07809205	      3.80713311	     28.14141935	     -1.82654136	      0.49116042	     11.06546954	      2.77657654	     -7.50955653	    -31.39577166	      1.37800320	     -4.48047323	    -14.70430964	    -15.48763688	      4.96150918	     42.10207237	     90.00000001	      0.00000000	      0.00000000	     23.54893684	    -16.42358393	    -19.41754495	     54.22707530	     90.00000001	      0.00000000	      0.00000000
      2.38000000	     15.81236116	      0.51794969	      1.37051050	     -0.45029508	      0.91713352	      0.00712570	      2.08011059	     -9.20777429	    -17.34112121	     24.61831513	      9.02224745	      0.42967066	      7.59212828	     29.00624311	     -7.50938777	    -25.71141277	      0.63146012	      2.98273785	     31.07946828	     -1.58602879	      0.54243905	      9.10359719	      2.51359458	     -7.50938777	    -31.71676081	      1.51345997	     -4.22062050	    -13.57553003	    -15.46459781	      5.06883038	     41.48635350	     90.00000001	      0.00000000	      0.00000000	     22.36568693	    -16.54455987	    -19.70331034	     55.38273769	     90.00000001	      0.00000000	      0.00000000
      2.39000000	     16.33839821	      0.29734157	      1.11121264	     -0.44055269	      0.91832071	      0.00957918	      1.02981136	     -8.68540620	    -16.89431375	     24.88102166	      8.90717739	      0.43425575	      7.97061566	     29.43586363	     -7.50925110	    -25.10729319	      0.16016779	      2.32507471	     34.34644809	     -1.33644778	      0.59945861	      6.77861708	      2.22117411	     -7.50925110	    -32.06917842	      1.63276298	     -4.00350625	    -12.46176344	    -15.46681605	      5.17675335	     41.03987339	     90.00000001	      0.00000000	      0.00000000	     21.19373550	    -16.65314482	    -20.00180647	     56.47440087	     90.00000001	      0.00000000	      0.00000000
      2.40000000	     16.85960648	      0.08789132	      0.82621894	     -0.43077561	      0.91952581	      0.01207764	     -0.09727997	     -8.23285758	    -16.54739152	     25.01639364	      8.88914816	      0.43661844	      8.40460602	     29.83904569	     -7.50915102	    -24.34742111	     -0.31018753	      1.88857659	     37.83157676	     -0.98140929	      0.66028558	      4.33945488	      1.89129653	     -7.50915102	    -32.41711244	      1.69873652	     -3.76684456	    -11.39685916	    -15.46561873	      5.29069585	     40.74301947	     90.00000001	      0.00000000	      0.00000000	     20.00764089	    -16.71224367	    -20.30182138	     57.45765324	     90.00000001	      0.00000000	      0.00000000
      2.41000000	     17.12628020	     -0.35506906	      0.54185683	     -0.42148438	      0.92025240	      0.01490707	     -0.82585760	     -7.38147826	    -16.02200587	     25.22100299	      8.59337842	      0.44018954	      8.87994202	     29.90488423	     -7.50881201	    -22.94609249	     -1.01288711	      1.19489113	     41.97109310	     -0.90106543	      0.73253377	      2.11683330	      0.95078930	     -7.50881201	    -32.55818584	      1.94616700	     -3.46418345	    -10.15478453	    -15.50543365	      5.63356885	     40.33642857	     90.00000001	      0.00000000	      0.00000000	     18.73936566	    -16.73066841	    -20.72132181	     58.51439027	     90.00000001	      0.00000000	      0.00000000
      2.42000000	     17.49643218	     -0.61172956	      0.37080530	     -0.41216423	      0.92120356	      0.01727928	     -1.84780879	     -6.88882596	    -15.57855554	     25.23364388	      8.64020202	      0.44041017	      9.45902444	     29.93628566	     -7.50855529	    -21.64104169	     -1.53261384	      1.19615743	     45.92615706	     -0.60382824	      0.80156265	     -0.14233179	      0.35247128	     -7.50855529	    -32.80812108	      2.05931407	     -3.30324684	     -9.04758706	    -15.54016836	      5.82136618	     40.33143806	     90.00000001	      0.00000000	      0.00000000	     17.54145492	    -16.68846683	    -21.04664629	     59.40147075	     90.00000001	      0.00000000	      0.00000000
      2.43000000	     17.78887298	     -0.90327936	      0.21281922	     -0.40296550	      0.92199179	      0.01973221	     -2.81593267	     -6.39577413	    -15.12716519	     25.19790384	      8.79912782	      0.43978639	     10.06881579	     29.88992350	     -7.50832815	    -20.18100945	     -2.06638011	      1.49025385	     49.87571021	     -0.24309962	      0.87049536	     -2.05157247	     -0.42671898	     -7.50832815	    -33.00121018	      2.17943749	     -3.13020534	     -7.97487385	    -15.58643965	      6.02026747	     40.43589544	     90.00000001	      0.00000000	      0.00000000	     16.37182338	    -16.63657640	    -21.39570367	     60.21801977	     90.00000001	      0.00000000	      0.00000000
      2.44000000	     17.93200390	     -1.27231758	      0.00848573	     -0.39420817	      0.92258470	      0.02234123	     -3.45875656	     -5.70347203	    -14.65663720	     25.35221865	      8.58175866	      0.44247969	     10.62855538	     29.55740154	     -7.50787946	    -18.45913678	     -2.70449373	      2.51266608	     53.93376791	      0.88508047	      0.94132183	     -3.57151521	     -3.09586231	     -7.50787946	    -33.08577469	      2.32127029	     -2.90390296	     -6.79300546	    -15.75722667	      6.70045697	     40.50459098	     90.00000001	      0.00000000	      0.00000000	     15.28164659	    -16.45470693	    -21.93404583	     60.84509078	     90.00000001	      0.00000000	      0.00000000
      2.45000000	     18.13112388	     -1.45844813	     -0.08354532	     -0.38544462	      0.92326862	      0.02447434	     -4.32488452	     -5.37865614	    -14.01117130	     25.30217847	      8.87975611	      0.44160632	     11.29357221	     29.05990421	     -7.50749733	    -16.79842717	     -3.07553251	      3.50369481	     57.64894723	      1.65859133	      1.00616394	     -4.42090353	     -4.45674136	     -7.50749733	    -33.23148497	      2.33682482	     -2.81383928	     -5.73027703	    -15.86878243	      6.98791750	     40.87966163	     90.00000001	      0.00000000	      0.00000000	     14.19778573	    -16.27533117	    -22.26616360	     61.42891110	     90.00000001	      0.00000000	      0.00000000
      2.46000000	     18.38366983	     -1.52529451	     -0.09966876	     -0.37667305	      0.92405414	      0.02630741	     -5.34692840	     -5.25053007	    -13.37970138	     25.09131136	      9.33277578	      0.43792600	     11.98207586	     28.74727851	     -7.50730318	    -15.19123224	     -3.22686531	      4.19301517	     61.05844870	      1.90099263	      1.06567097	     -4.47019402	     -4.92817653	     -7.50730318	    -33.44321756	      2.25525821	     -2.80987590	     -4.75363962	    -15.95415465	      7.03742079	     41.49031583	     90.00000001	      0.00000000	      0.00000000	     13.15121819	    -16.09399116	    -22.49505745	     61.91245322	     90.00000001	      0.00000000	      0.00000000
